<?xml version="1.0" standalone="no"?>
<!DOCTYPE svg PUBLIC "-//W3C//DTD SVG 20010904//EN"
 "http://www.w3.org/TR/2001/REC-SVG-20010904/DTD/svg10.dtd">
<svg version="1.0" xmlns="http://www.w3.org/2000/svg"
 width="261.000000pt" height="261.000000pt" viewBox="0 0 261.000000 261.000000"
 preserveAspectRatio="xMidYMid meet">
<metadata>
Created by potrace 1.11, written by Peter Selinger 2001-2013
</metadata>
<g transform="translate(0.000000,261.000000) scale(0.100000,-0.100000)"
fill="#000000" stroke="none">
<path d="M1250 2550 c-103 -8 -181 -30 -274 -77 -135 -68 -267 -198 -319 -313
-11 -25 -23 -53 -28 -62 -21 -42 -49 -183 -49 -246 0 -156 38 -270 195 -592
130 -267 134 -277 140 -355 6 -70 11 -87 46 -142 l39 -63 0 -196 c0 -121 4
-212 12 -236 8 -29 34 -60 104 -124 l93 -85 113 2 c62 1 115 4 118 8 3 3 23
21 45 40 22 19 64 61 93 93 l52 59 0 216 0 216 40 58 c22 33 43 76 46 96 3 21
7 45 9 53 2 8 7 42 11 75 3 33 10 67 15 76 4 9 5 19 2 23 -3 3 -1 6 6 6 7 0 9
5 6 10 -3 6 -2 10 2 10 7 0 20 26 35 70 1 3 8 11 15 18 7 8 11 18 8 23 -4 5
-2 9 2 9 8 0 28 43 30 64 1 5 6 12 11 15 19 12 125 256 148 341 34 124 33 287
-1 389 -104 307 -329 490 -645 524 -19 2 -73 1 -120 -3z"/>
</g>
</svg>
